<mxfile host="Electron" agent="Mozilla/5.0 (Windows NT 10.0; Win64; x64) AppleWebKit/537.36 (KHTML, like Gecko) draw.io/28.0.6 Chrome/138.0.7204.100 Electron/37.2.3 Safari/537.36" version="28.0.6">
  <diagram name="Page-1" id="3MDNyUzVliumUVvOc4LG">
    <mxGraphModel dx="1869" dy="850" grid="1" gridSize="10" guides="1" tooltips="1" connect="1" arrows="1" fold="1" page="0" pageScale="1" pageWidth="827" pageHeight="1169" math="0" shadow="0">
      <root>
        <mxCell id="0" />
        <mxCell id="1" parent="0" />
        <mxCell id="ln8dL5twHVKWjiyuCZDX-1" value="" style="rounded=1;whiteSpace=wrap;html=1;fillColor=none;dashed=1;strokeColor=#6c8ebf;" vertex="1" parent="1">
          <mxGeometry x="-120" y="160" width="630" height="520" as="geometry" />
        </mxCell>
        <mxCell id="ln8dL5twHVKWjiyuCZDX-2" value="&lt;font style=&quot;font-size: 20px;&quot;&gt;CRM&amp;nbsp;&lt;/font&gt;" style="text;html=1;align=center;verticalAlign=middle;whiteSpace=wrap;rounded=0;fillColor=#dae8fc;strokeColor=#6c8ebf;" vertex="1" parent="1">
          <mxGeometry x="80" y="140" width="160" height="30" as="geometry" />
        </mxCell>
        <mxCell id="ln8dL5twHVKWjiyuCZDX-3" value="&lt;b&gt;&lt;font style=&quot;font-size: 16px;&quot;&gt;crm_cust_info&lt;/font&gt;&lt;/b&gt;" style="swimlane;fontStyle=0;childLayout=stackLayout;horizontal=1;startSize=30;horizontalStack=0;resizeParent=1;resizeParentMax=0;resizeLast=0;collapsible=1;marginBottom=0;whiteSpace=wrap;html=1;fillColor=#dae8fc;strokeColor=#6c8ebf;" vertex="1" parent="1">
          <mxGeometry x="280" y="410" width="200" height="130" as="geometry" />
        </mxCell>
        <mxCell id="ln8dL5twHVKWjiyuCZDX-4" value="&lt;font style=&quot;font-size: 14px;&quot;&gt;cst_id&lt;/font&gt;" style="text;strokeColor=#6c8ebf;fillColor=none;align=left;verticalAlign=middle;spacingLeft=4;spacingRight=4;overflow=hidden;points=[[0,0.5],[1,0.5]];portConstraint=eastwest;rotatable=0;whiteSpace=wrap;html=1;" vertex="1" parent="ln8dL5twHVKWjiyuCZDX-3">
          <mxGeometry y="30" width="200" height="50" as="geometry" />
        </mxCell>
        <mxCell id="ln8dL5twHVKWjiyuCZDX-20" value="&lt;font style=&quot;font-size: 14px;&quot;&gt;cst_key&lt;/font&gt;" style="text;strokeColor=#6c8ebf;fillColor=none;align=left;verticalAlign=middle;spacingLeft=4;spacingRight=4;overflow=hidden;points=[[0,0.5],[1,0.5]];portConstraint=eastwest;rotatable=0;whiteSpace=wrap;html=1;" vertex="1" parent="ln8dL5twHVKWjiyuCZDX-3">
          <mxGeometry y="80" width="200" height="50" as="geometry" />
        </mxCell>
        <mxCell id="ln8dL5twHVKWjiyuCZDX-7" value="crm_prd_info" style="swimlane;fontStyle=1;childLayout=stackLayout;horizontal=1;startSize=30;horizontalStack=0;resizeParent=1;resizeParentMax=0;resizeLast=0;collapsible=1;marginBottom=0;whiteSpace=wrap;html=1;fillColor=#dae8fc;strokeColor=#6c8ebf;fontSize=16;" vertex="1" parent="1">
          <mxGeometry x="280" y="240" width="200" height="60" as="geometry" />
        </mxCell>
        <mxCell id="ln8dL5twHVKWjiyuCZDX-8" value="&lt;font style=&quot;font-size: 14px;&quot;&gt;prd_key&lt;/font&gt;" style="text;strokeColor=#6c8ebf;fillColor=none;align=left;verticalAlign=middle;spacingLeft=4;spacingRight=4;overflow=hidden;points=[[0,0.5],[1,0.5]];portConstraint=eastwest;rotatable=0;whiteSpace=wrap;html=1;" vertex="1" parent="ln8dL5twHVKWjiyuCZDX-7">
          <mxGeometry y="30" width="200" height="30" as="geometry" />
        </mxCell>
        <mxCell id="ln8dL5twHVKWjiyuCZDX-11" value="&lt;font style=&quot;font-size: 16px;&quot;&gt;crm_sales_details&lt;/font&gt;" style="swimlane;fontStyle=1;childLayout=stackLayout;horizontal=1;startSize=30;horizontalStack=0;resizeParent=1;resizeParentMax=0;resizeLast=0;collapsible=1;marginBottom=0;whiteSpace=wrap;html=1;fillColor=#dae8fc;strokeColor=#6c8ebf;fontSize=14;" vertex="1" parent="1">
          <mxGeometry x="-80" y="340" width="200" height="90" as="geometry" />
        </mxCell>
        <mxCell id="ln8dL5twHVKWjiyuCZDX-12" value="sls_prd_key" style="text;strokeColor=#6c8ebf;fillColor=none;align=left;verticalAlign=middle;spacingLeft=4;spacingRight=4;overflow=hidden;points=[[0,0.5],[1,0.5]];portConstraint=eastwest;rotatable=0;whiteSpace=wrap;html=1;fontSize=14;" vertex="1" parent="ln8dL5twHVKWjiyuCZDX-11">
          <mxGeometry y="30" width="200" height="30" as="geometry" />
        </mxCell>
        <mxCell id="ln8dL5twHVKWjiyuCZDX-13" value="&lt;font style=&quot;font-size: 14px;&quot;&gt;sls_cust_id&lt;/font&gt;" style="text;strokeColor=#6c8ebf;fillColor=none;align=left;verticalAlign=middle;spacingLeft=4;spacingRight=4;overflow=hidden;points=[[0,0.5],[1,0.5]];portConstraint=eastwest;rotatable=0;whiteSpace=wrap;html=1;" vertex="1" parent="ln8dL5twHVKWjiyuCZDX-11">
          <mxGeometry y="60" width="200" height="30" as="geometry" />
        </mxCell>
        <mxCell id="ln8dL5twHVKWjiyuCZDX-17" style="edgeStyle=orthogonalEdgeStyle;rounded=0;orthogonalLoop=1;jettySize=auto;html=1;entryX=0;entryY=0.5;entryDx=0;entryDy=0;fillColor=#dae8fc;strokeColor=#000000;" edge="1" parent="1" source="ln8dL5twHVKWjiyuCZDX-12" target="ln8dL5twHVKWjiyuCZDX-8">
          <mxGeometry relative="1" as="geometry" />
        </mxCell>
        <mxCell id="ln8dL5twHVKWjiyuCZDX-18" style="edgeStyle=orthogonalEdgeStyle;rounded=0;orthogonalLoop=1;jettySize=auto;html=1;fillColor=#dae8fc;strokeColor=#000000;" edge="1" parent="1" source="ln8dL5twHVKWjiyuCZDX-13" target="ln8dL5twHVKWjiyuCZDX-4">
          <mxGeometry relative="1" as="geometry" />
        </mxCell>
        <mxCell id="ln8dL5twHVKWjiyuCZDX-19" value="" style="rounded=1;whiteSpace=wrap;html=1;fillColor=none;dashed=1;strokeColor=#d79b00;" vertex="1" parent="1">
          <mxGeometry x="560" y="170" width="560" height="510" as="geometry" />
        </mxCell>
        <mxCell id="ln8dL5twHVKWjiyuCZDX-21" value="&lt;span style=&quot;font-size: 20px;&quot;&gt;ERP&lt;/span&gt;" style="text;html=1;align=center;verticalAlign=middle;whiteSpace=wrap;rounded=0;fillColor=#fff2cc;strokeColor=#d6b656;" vertex="1" parent="1">
          <mxGeometry x="760" y="150" width="160" height="30" as="geometry" />
        </mxCell>
        <mxCell id="ln8dL5twHVKWjiyuCZDX-22" value="&lt;b&gt;&lt;font style=&quot;font-size: 16px;&quot;&gt;erp_cust_az12&lt;/font&gt;&lt;/b&gt;" style="swimlane;fontStyle=0;childLayout=stackLayout;horizontal=1;startSize=30;horizontalStack=0;resizeParent=1;resizeParentMax=0;resizeLast=0;collapsible=1;marginBottom=0;whiteSpace=wrap;html=1;fillColor=#fff2cc;strokeColor=#d6b656;" vertex="1" parent="1">
          <mxGeometry x="720" y="410" width="200" height="60" as="geometry" />
        </mxCell>
        <mxCell id="ln8dL5twHVKWjiyuCZDX-23" value="&lt;font style=&quot;font-size: 14px;&quot;&gt;cid&lt;/font&gt;" style="text;strokeColor=#6c8ebf;fillColor=none;align=left;verticalAlign=middle;spacingLeft=4;spacingRight=4;overflow=hidden;points=[[0,0.5],[1,0.5]];portConstraint=eastwest;rotatable=0;whiteSpace=wrap;html=1;" vertex="1" parent="ln8dL5twHVKWjiyuCZDX-22">
          <mxGeometry y="30" width="200" height="30" as="geometry" />
        </mxCell>
        <mxCell id="ln8dL5twHVKWjiyuCZDX-25" value="&lt;font style=&quot;font-size: 16px;&quot;&gt;&lt;b&gt;erp_px_cat_g1v2&lt;/b&gt;&lt;/font&gt;" style="swimlane;fontStyle=0;childLayout=stackLayout;horizontal=1;startSize=30;horizontalStack=0;resizeParent=1;resizeParentMax=0;resizeLast=0;collapsible=1;marginBottom=0;whiteSpace=wrap;html=1;fillColor=#fff2cc;strokeColor=#d6b656;" vertex="1" parent="1">
          <mxGeometry x="720" y="240" width="200" height="60" as="geometry" />
        </mxCell>
        <mxCell id="ln8dL5twHVKWjiyuCZDX-26" value="&lt;font style=&quot;font-size: 14px;&quot;&gt;prd_id&lt;/font&gt;" style="text;strokeColor=#6c8ebf;fillColor=none;align=left;verticalAlign=middle;spacingLeft=4;spacingRight=4;overflow=hidden;points=[[0,0.5],[1,0.5]];portConstraint=eastwest;rotatable=0;whiteSpace=wrap;html=1;" vertex="1" parent="ln8dL5twHVKWjiyuCZDX-25">
          <mxGeometry y="30" width="200" height="30" as="geometry" />
        </mxCell>
        <mxCell id="ln8dL5twHVKWjiyuCZDX-27" value="&lt;b&gt;&lt;font style=&quot;font-size: 16px;&quot;&gt;erp_loc_a101&lt;/font&gt;&lt;/b&gt;" style="swimlane;fontStyle=0;childLayout=stackLayout;horizontal=1;startSize=30;horizontalStack=0;resizeParent=1;resizeParentMax=0;resizeLast=0;collapsible=1;marginBottom=0;whiteSpace=wrap;html=1;fillColor=#fff2cc;strokeColor=#d6b656;" vertex="1" parent="1">
          <mxGeometry x="720" y="560" width="200" height="60" as="geometry" />
        </mxCell>
        <mxCell id="ln8dL5twHVKWjiyuCZDX-28" value="&lt;font style=&quot;font-size: 14px;&quot;&gt;cid&lt;/font&gt;" style="text;strokeColor=#6c8ebf;fillColor=none;align=left;verticalAlign=middle;spacingLeft=4;spacingRight=4;overflow=hidden;points=[[0,0.5],[1,0.5]];portConstraint=eastwest;rotatable=0;whiteSpace=wrap;html=1;" vertex="1" parent="ln8dL5twHVKWjiyuCZDX-27">
          <mxGeometry y="30" width="200" height="30" as="geometry" />
        </mxCell>
        <mxCell id="ln8dL5twHVKWjiyuCZDX-31" style="edgeStyle=orthogonalEdgeStyle;rounded=0;orthogonalLoop=1;jettySize=auto;html=1;entryX=1;entryY=0.5;entryDx=0;entryDy=0;" edge="1" parent="1" source="ln8dL5twHVKWjiyuCZDX-23" target="ln8dL5twHVKWjiyuCZDX-20">
          <mxGeometry relative="1" as="geometry" />
        </mxCell>
        <mxCell id="ln8dL5twHVKWjiyuCZDX-32" style="edgeStyle=orthogonalEdgeStyle;rounded=0;orthogonalLoop=1;jettySize=auto;html=1;entryX=1;entryY=0.5;entryDx=0;entryDy=0;" edge="1" parent="1" source="ln8dL5twHVKWjiyuCZDX-28" target="ln8dL5twHVKWjiyuCZDX-20">
          <mxGeometry relative="1" as="geometry" />
        </mxCell>
        <mxCell id="ln8dL5twHVKWjiyuCZDX-33" style="edgeStyle=orthogonalEdgeStyle;rounded=0;orthogonalLoop=1;jettySize=auto;html=1;entryX=1;entryY=0.5;entryDx=0;entryDy=0;" edge="1" parent="1" source="ln8dL5twHVKWjiyuCZDX-26" target="ln8dL5twHVKWjiyuCZDX-8">
          <mxGeometry relative="1" as="geometry" />
        </mxCell>
        <mxCell id="ln8dL5twHVKWjiyuCZDX-38" value="&lt;span style=&quot;font-size: 16px;&quot;&gt;customer location (country)&lt;/span&gt;" style="text;html=1;align=center;verticalAlign=middle;whiteSpace=wrap;rounded=0;" vertex="1" parent="1">
          <mxGeometry x="720" y="530" width="200" height="30" as="geometry" />
        </mxCell>
        <mxCell id="ln8dL5twHVKWjiyuCZDX-40" value="&lt;span style=&quot;font-size: 16px;&quot;&gt;Extra customer Information (Birthday)&lt;/span&gt;" style="text;html=1;align=center;verticalAlign=middle;whiteSpace=wrap;rounded=0;" vertex="1" parent="1">
          <mxGeometry x="720" y="370" width="200" height="40" as="geometry" />
        </mxCell>
        <mxCell id="ln8dL5twHVKWjiyuCZDX-41" value="&lt;span style=&quot;font-size: 16px;&quot;&gt;Product Category&lt;/span&gt;" style="text;html=1;align=center;verticalAlign=middle;whiteSpace=wrap;rounded=0;" vertex="1" parent="1">
          <mxGeometry x="720" y="200" width="200" height="40" as="geometry" />
        </mxCell>
        <mxCell id="ln8dL5twHVKWjiyuCZDX-42" value="&lt;span style=&quot;font-size: 16px;&quot;&gt;Current &amp;amp; History Product Infromation&lt;/span&gt;" style="text;html=1;align=center;verticalAlign=middle;whiteSpace=wrap;rounded=0;" vertex="1" parent="1">
          <mxGeometry x="307.5" y="180" width="145" height="70" as="geometry" />
        </mxCell>
        <mxCell id="ln8dL5twHVKWjiyuCZDX-43" value="&lt;span style=&quot;font-size: 16px;&quot;&gt;Customer Information&lt;/span&gt;" style="text;html=1;align=center;verticalAlign=middle;whiteSpace=wrap;rounded=0;" vertex="1" parent="1">
          <mxGeometry x="274" y="370" width="206" height="40" as="geometry" />
        </mxCell>
        <mxCell id="ln8dL5twHVKWjiyuCZDX-44" value="&lt;font style=&quot;font-size: 16px;&quot;&gt;Transcation Record&amp;nbsp; About&amp;nbsp;&amp;nbsp;&lt;/font&gt;&lt;div&gt;&lt;font style=&quot;font-size: 16px;&quot;&gt;Sales and&amp;nbsp; Orders&amp;nbsp;&lt;/font&gt;&lt;/div&gt;" style="text;html=1;align=center;verticalAlign=middle;whiteSpace=wrap;rounded=0;" vertex="1" parent="1">
          <mxGeometry x="-70" y="270" width="190" height="70" as="geometry" />
        </mxCell>
        <mxCell id="ln8dL5twHVKWjiyuCZDX-47" value="&lt;font style=&quot;font-size: 18px;&quot;&gt;Product&lt;/font&gt;" style="text;html=1;align=center;verticalAlign=middle;whiteSpace=wrap;rounded=0;fontStyle=1;fillColor=#d5e8d4;strokeColor=#82b366;" vertex="1" parent="1">
          <mxGeometry x="720" y="300" width="200" height="30" as="geometry" />
        </mxCell>
        <mxCell id="ln8dL5twHVKWjiyuCZDX-48" value="&lt;font style=&quot;font-size: 18px;&quot;&gt;Product&lt;/font&gt;" style="text;html=1;align=center;verticalAlign=middle;whiteSpace=wrap;rounded=0;fontStyle=1;fillColor=#d5e8d4;strokeColor=#82b366;" vertex="1" parent="1">
          <mxGeometry x="280" y="300" width="200" height="30" as="geometry" />
        </mxCell>
        <mxCell id="ln8dL5twHVKWjiyuCZDX-49" value="&lt;span style=&quot;font-size: 18px;&quot;&gt;Customer&lt;/span&gt;" style="text;html=1;align=center;verticalAlign=middle;whiteSpace=wrap;rounded=0;fontStyle=1;fillColor=#e3c800;strokeColor=#B09500;fontColor=#000000;" vertex="1" parent="1">
          <mxGeometry x="280" y="540" width="200" height="30" as="geometry" />
        </mxCell>
        <mxCell id="ln8dL5twHVKWjiyuCZDX-50" value="&lt;span style=&quot;font-size: 18px;&quot;&gt;Customer&lt;/span&gt;" style="text;html=1;align=center;verticalAlign=middle;whiteSpace=wrap;rounded=0;fontStyle=1;fillColor=#e3c800;strokeColor=#B09500;fontColor=#000000;" vertex="1" parent="1">
          <mxGeometry x="720" y="620" width="200" height="30" as="geometry" />
        </mxCell>
        <mxCell id="ln8dL5twHVKWjiyuCZDX-51" value="&lt;span style=&quot;font-size: 18px;&quot;&gt;Customer&lt;/span&gt;" style="text;html=1;align=center;verticalAlign=middle;whiteSpace=wrap;rounded=0;fontStyle=1;fillColor=#e3c800;strokeColor=#B09500;fontColor=#000000;" vertex="1" parent="1">
          <mxGeometry x="720" y="470" width="200" height="30" as="geometry" />
        </mxCell>
        <mxCell id="ln8dL5twHVKWjiyuCZDX-52" value="&lt;span style=&quot;font-size: 18px;&quot;&gt;Sales&lt;/span&gt;" style="text;html=1;align=center;verticalAlign=middle;whiteSpace=wrap;rounded=0;fontStyle=1;fillColor=#f0a30a;strokeColor=#BD7000;fontColor=#000000;" vertex="1" parent="1">
          <mxGeometry x="-80" y="430" width="200" height="30" as="geometry" />
        </mxCell>
      </root>
    </mxGraphModel>
  </diagram>
</mxfile>
